<svg xmlns="http://www.w3.org/2000/svg" xmlns:xlink="http://www.w3.org/1999/xlink" fill="none" version="1.1" width="989" height="200" viewBox="0 0 989 200"><defs><clipPath id="master_svg0_2_02"><rect x="0" y="0" width="989" height="200" rx="0"/></clipPath><clipPath id="master_svg1_2_11"><rect x="829" y="47" width="105" height="106" rx="0"/></clipPath><linearGradient x1="1.003369688987732" y1="-0.16359592974185944" x2="0.08941592855945774" y2="0.7752872859480816" id="master_svg2_1_131"><stop offset="0%" stop-color="#FFFFFF" stop-opacity="1"/><stop offset="100%" stop-color="#FFFFFF" stop-opacity="0"/></linearGradient></defs><g clip-path="url(#master_svg0_2_02)"><rect x="0" y="0" width="989" height="200" rx="0" fill="#292A2D" fill-opacity="1"/><g><path d="M66.816,121.672001C71.47200000000001,121.672001,75.264,119.848,78.191999,116.439999L74.4,112.024002C72.52799999999999,114.08800099999999,70.176001,115.52799999999999,67.104,115.52799999999999C61.488,115.52799999999999,57.888000500000004,110.87200200000001,57.888000500000004,103.143997C57.888000500000004,95.511999,61.872,90.903999,67.248001,90.903999C69.936001,90.903999,72,92.152,73.823999,93.879999L77.52,89.368C75.21600000000001,86.96799899999999,71.664,84.807999,67.104,84.807999C58.128,84.807999,50.592,91.671999,50.592,103.384003C50.592,115.239998,57.888000500000004,121.672001,66.816,121.672001ZM90.144001,121L97.248001,121L97.248001,91.383999L107.279999,91.383999L107.279999,85.431999L80.16,85.431999L80.16,91.383999L90.144001,91.383999L90.144001,121ZM118.176003,121.672001C121.872002,121.672001,124.416,119.848,126.720001,117.112L126.912003,117.112L127.440002,121L133.200005,121L133.200005,94.119999L126.144005,94.119999L126.144005,112.26400000000001C124.320007,114.664001,122.880005,115.62400099999999,120.720001,115.62400099999999C118.080002,115.62400099999999,116.880005,114.183998,116.880005,110.007999L116.880005,94.119999L109.872005,94.119999L109.872005,110.87200200000001C109.872005,117.639999,112.368004,121.672001,118.176003,121.672001ZM140.736,121L147.792,121L147.792,102.52000000000001C149.76,100.552002,151.2,99.496002,153.36,99.496002C156,99.496002,157.152,100.935997,157.152,105.112L157.152,121L164.208,121L164.208,104.248001C164.208,97.47999999999999,161.712,93.44800000000001,155.904,93.44800000000001C152.256,93.44800000000001,149.51999999999998,95.368,147.167999,97.671997L147.024002,97.671997L146.496002,94.119999L140.736,94.119999L140.736,121ZM183.216,121.672001C186.528,121.672001,189.936,120.52000000000001,192.576,118.695999L190.17599,114.37599900000001C188.20799,115.576,186.336,116.200001,184.17599,116.200001C180.144,116.200001,177.26399,113.944,176.688,109.576L193.248,109.576C193.44,108.903999,193.584,107.608002,193.584,106.312C193.584,98.82399699999999,189.744,93.44800000000001,182.35201,93.44800000000001C175.96800000000002,93.44800000000001,169.824,98.87200200000001,169.824,107.55999800000001C169.824,116.439999,175.68,121.672001,183.216,121.672001ZM176.54399,104.82399699999999C177.12,100.935997,179.616,98.91999799999999,182.448,98.91999799999999C185.952,98.91999799999999,187.536,101.22399899999999,187.536,104.82399699999999L176.54399,104.82399699999999ZM198.528,109.816002L211.63199,109.816002L211.63199,104.728001L198.528,104.728001L198.528,109.816002ZM218.30399,121L224.68799,121L224.68799,106.16799900000001C224.68799,102.760002,224.11198,97.86399800000001,223.77599,94.504L223.96799,94.504L226.79999,102.855999L232.31999,117.78399999999999L236.39999,117.78399999999999L241.87199,102.855999L244.75198,94.504L244.99199,94.504C244.60799,97.86399800000001,244.07999,102.760002,244.07999,106.16799900000001L244.07999,121L250.56,121L250.56,85.431999L242.68799,85.431999L236.73599,102.13600199999999C236.01599,104.295998,235.39198,106.647999,234.62399,108.903999L234.38399,108.903999C233.66399,106.647999,232.99199,104.295998,232.22398,102.13600199999999L226.17599,85.431999L218.30399,85.431999L218.30399,121ZM259.24798999999996,121L280.79999,121L280.79999,115.048L266.35199,115.048L266.35199,85.431999L259.24798999999996,85.431999L259.24798999999996,121Z" fill="#FFFFFF" fill-opacity="1"/><path d="M283.34398999999996,121L290.832,121L294.62399,113.12799799999999C295.48798999999997,111.304001,296.30399,109.43199899999999,297.21599000000003,107.271999L297.40799000000004,107.271999C298.41598999999997,109.43199899999999,299.32799,111.304001,300.19199000000003,113.12799799999999L304.17599,121L312.048,121L302.06399999999996,103L311.42398,85.431999L303.93599,85.431999L300.57599,92.823999C299.808,94.45599899999999,299.03999,96.184,298.17599,98.391998L297.98399,98.391998C296.92799,96.184,296.20799,94.45599899999999,295.34398999999996,92.823999L291.79199,85.431999L283.87199,85.431999L293.28,102.711998L283.34398999999996,121Z" fill="#929292" fill-opacity="1"/></g><g clip-path="url(#master_svg1_2_11)"><g><path d="M874.9468629073486,53.19542980637817C876.9398519073486,52.03604155637817,879.1996709073486,51.425724506378174,881.5000019073486,51.425724506378174C883.8003749073487,51.425724506378174,886.0605029073487,52.036090196378176,888.0533159073486,53.195571106378175C888.0563759073486,53.197342206378174,888.0594389073486,53.199113406378174,888.0625019073486,53.200888906378175C888.0625019073486,53.200888906378175,918.6875019073486,70.86749350637817,918.6875019073486,70.86749350637817C920.6807579073486,72.02934150637817,922.3362519073487,73.69985650637818,923.4881839073487,75.71151550637818C924.6401229073487,77.72317550637817,925.2478119073486,80.00526650637818,925.2500019073486,82.32878750637818C925.2500019073486,82.32878750637818,925.2500019073486,117.67130750637817,925.2500019073486,117.67130750637817C925.2478119073486,119.99491550637818,924.6401229073487,122.27700450637818,923.4881839073487,124.28835750637818C922.3362519073487,126.30014450637817,920.6807579073486,127.97053150637818,918.6875019073486,129.1325575063782C918.6875019073486,129.1325575063782,918.6704349073486,129.14227750637818,918.6704349073486,129.14227750637818C918.6704349073486,129.14227750637818,888.0625019073486,146.79922150637816,888.0625019073486,146.79922150637816C888.0598769073487,146.80054150637818,888.0572529073486,146.80231150637817,888.0546279073486,146.80363150637817C886.0613769073486,147.9634515063782,883.8008139073486,148.57427650637817,881.5000019073486,148.57427650637817C879.1991899073487,148.57427650637817,876.9388449073487,147.96389450637815,874.9455969073487,146.80363150637817C874.9428849073487,146.80231150637817,874.9402139073486,146.80054150637818,874.9375019073486,146.79922150637816C874.9375019073486,146.79922150637816,844.3293896073486,129.14227750637818,844.3293896073486,129.14227750637818C844.3293896073486,129.14227750637818,844.3125019073486,129.1325575063782,844.3125019073486,129.1325575063782C842.3192081073487,127.97053150637818,840.6636207073486,126.30014450637817,839.5117793073487,124.28835750637818C838.3599381473487,122.27700450637818,837.7523626617486,119.99491550637818,837.7500019073486,117.67130750637817C837.7500019073486,117.67130750637817,837.7500019073486,82.32878750637818,837.7500019073486,82.32878750637818C837.7523626617486,80.00526650637818,838.3599381473487,77.72317550637817,839.5117793073487,75.71151550637818C840.6636207073486,73.69985650637818,842.3192081073487,72.02934150637817,844.3125019073486,70.86753750637817C844.3125019073486,70.86753750637817,844.3293896073486,70.85773350637817,844.3293896073486,70.85773350637817C844.3293896073486,70.85773350637817,874.9468629073486,53.19542980637817,874.9468629073486,53.19542980637817C874.9468629073486,53.19542980637817,874.9468629073486,53.19542980637817,874.9468629073486,53.19542980637817ZM881.5000019073486,60.25905750637817C880.7320159073487,60.25905750637817,879.9775909073486,60.463151406378174,879.3125019073486,60.85075810637817C879.3125019073486,60.85075810637817,879.2956109073486,60.860607606378174,879.2956109073486,60.860607606378174C879.2956109073486,60.860607606378174,848.6875019073486,78.51746750637818,848.6875019073486,78.51746750637818C848.6851839073487,78.51879350637817,848.6829079073486,78.52011950637817,848.6805899073486,78.52148850637818C848.0192639073487,78.90856450637817,847.4698954073486,79.46387150637817,847.0872574073486,80.13211250637818C846.7036142073487,80.80207650637817,846.5010958073486,81.56209850637818,846.5000019073486,82.33594150637818C846.5000019073486,82.33594150637818,846.5000019073486,117.66424250637817,846.5000019073486,117.66424250637817C846.5010958073486,118.43803850637818,846.7036142073487,119.19770450637817,847.0872574073486,119.86771050637817C847.4698954073486,120.53595350637818,848.0192639073487,121.09157250637817,848.6805899073486,121.47847450637818C848.6829079073486,121.47980150637818,848.6851839073487,121.48112150637817,848.6875019073486,121.48244950637817C848.6875019073486,121.48244950637817,879.3125019073486,139.14911350637817,879.3125019073486,139.14911350637817C879.9775909073486,139.5368925063782,880.7320159073487,139.7409405063782,881.5000019073486,139.7409405063782C882.2678129073487,139.7409405063782,883.0225009073487,139.5368925063782,883.6875019073486,139.14911350637817C883.6875019073486,139.14911350637817,883.7045609073487,139.13939350637816,883.7045609073487,139.13939350637816C883.7045609073487,139.13939350637816,914.3125019073486,121.48244950637817,914.3125019073486,121.48244950637817C914.3146919073487,121.48112150637817,914.3173159073486,121.47980150637818,914.3195059073487,121.47847450637818C914.9805699073486,121.09157250637817,915.5300619073487,120.53595350637818,915.9128819073486,119.86771050637817C916.2965639073486,119.19726250637818,916.4991249073487,118.43671850637817,916.5000019073486,117.66202950637818C916.5000019073486,117.66202950637818,916.5000019073486,82.33784150637817,916.5000019073486,82.33784150637817C916.4991249073487,81.56333350637817,916.2965639073486,80.80265250637817,915.9128819073486,80.13211250637818C915.5300619073487,79.46387150637817,914.9805699073486,78.90856450637817,914.3195059073487,78.52148850637818C914.3173159073486,78.52016350637817,914.3146919073487,78.51879350637817,914.3125019073486,78.51746750637818C914.3125019073486,78.51746750637818,883.6875019073486,60.85080290637818,883.6875019073486,60.85080290637818C883.0225009073487,60.463151406378174,882.2678129073487,60.25905750637817,881.5000019073486,60.25905750637817C881.5000019073486,60.25905750637817,881.5000019073486,60.25905750637817,881.5000019073486,60.25905750637817Z" fill-rule="evenodd" fill="#FFFFFF" fill-opacity="1"/></g></g><g><path d="M493.63937,630.3772Q547.32999,653.08643,606.1188999999999,653.08643Q664.9082000000001,653.08643,718.59888,630.3772Q770.45651,608.4433,810.44992,568.44983Q850.44324,528.45645,872.37714,476.59875Q895.0863,422.90808,895.0863,364.11902Q895.0863,305.33011,872.37714,251.63948Q850.44324,199.78177,810.44992,159.788368Q770.45651,119.79488,718.59888,97.860905Q664.90814,75.1515942,606.1188999999999,75.151595Q547.33005,75.151595,493.63939,97.86090899999999Q441.78171,119.794933,401.788315,159.788361Q361.794933,199.78177,339.860905,251.63948Q317.1515846,305.33018000000004,317.151534,364.11902Q317.151595,422.90808,339.860891,476.59879Q361.794857,528.45642,401.7883,568.44983Q441.78174,608.44324,493.63937,630.3772ZM717.15875,626.97241Q664.15839,649.38965,606.1188999999999,649.38965Q548.07973,649.38965,495.07947,626.97241Q443.88589,605.31934,404.40234399999997,565.83582Q364.918785,526.35229,343.265669,475.15866Q320.848405,422.15839,320.848344,364.11902Q320.8483963,306.07983,343.265682,253.07957Q364.918819,201.88597,404.402359,162.402405Q443.88593000000003,122.918808,495.07948,101.265686Q548.07971,78.848405,606.1188999999999,78.848405Q664.15845,78.8484058,717.15875,101.265682Q768.3524199999999,122.918823,807.83591,162.402397Q847.31927,201.88588,868.97235,253.07957Q891.38953,306.07986,891.38953,364.11902Q891.38953,422.15833,868.97235,475.15863Q847.31927,526.35239,807.83591,565.83582Q768.35245,605.31934,717.15875,626.97241Z" fill-rule="evenodd" fill="url(#master_svg2_1_131)" fill-opacity="1" style="mix-blend-mode:passthrough"/></g></g></svg>